<?xml version="1.0" encoding="UTF-8" standalone="no"?>
<!DOCTYPE svg PUBLIC "-//W3C//DTD SVG 1.1//EN"
 "http://www.w3.org/Graphics/SVG/1.1/DTD/svg11.dtd">
<!-- Generated by graphviz version 2.40.1 (20161225.0304)
 -->
<!-- Title: models_diagram Pages: 1 -->
<svg width="2290pt" height="512pt"
 viewBox="0.00 0.00 2289.50 512.00" xmlns="http://www.w3.org/2000/svg" xmlns:xlink="http://www.w3.org/1999/xlink">
<g id="graph0" class="graph" transform="scale(1 1) rotate(0) translate(36 476)">
<title>models_diagram</title>
<polygon fill="#ffffff" stroke="transparent" points="-36,36 -36,-476 2253.5,-476 2253.5,36 -36,36"/>
<!-- AggradaObservation -->
<g id="node1" class="node">
<title>AggradaObservation</title>
<polygon fill="#add8e6" stroke="transparent" points="1297.5,-220 1297.5,-242 1434.5,-242 1434.5,-220 1297.5,-220"/>
<polygon fill="none" stroke="#000000" points="1297.5,-220 1297.5,-242 1434.5,-242 1434.5,-220 1297.5,-220"/>
<text text-anchor="start" x="1324.3505" y="-229" font-family="Times,serif" font-weight="bold" font-size="10.00" fill="#000000">AggradaObservation</text>
<polygon fill="none" stroke="#000000" points="1297.5,-198 1297.5,-220 1434.5,-220 1434.5,-198 1297.5,-198"/>
<text text-anchor="start" x="1302.5" y="-207" font-family="Times,serif" text-decoration="underline" font-size="10.00" fill="#000000">id</text>
<text text-anchor="start" x="1310.279" y="-207" font-family="Times,serif" font-size="10.00" fill="#000000">: NUMBER</text>
<polygon fill="none" stroke="#000000" points="1297.5,-176 1297.5,-198 1434.5,-198 1434.5,-176 1297.5,-176"/>
<text text-anchor="start" x="1302.2645" y="-185" font-family="Times,serif" font-style="italic" text-decoration="underline" font-size="10.00" fill="#000000">aggrada_spatials_id</text>
<text text-anchor="start" x="1381.6825" y="-185" font-family="Times,serif" font-size="10.00" fill="#000000">: NUMBER</text>
<polygon fill="none" stroke="#000000" points="1297.5,-154 1297.5,-176 1434.5,-176 1434.5,-154 1297.5,-154"/>
<text text-anchor="start" x="1302.5" y="-162" font-family="Times,serif" font-size="10.00" fill="#000000">temporal_range_tz: RANGE</text>
<polygon fill="none" stroke="#000000" points="1297.5,-132 1297.5,-154 1434.5,-154 1434.5,-132 1297.5,-132"/>
<text text-anchor="start" x="1302.5" y="-140" font-family="Times,serif" font-size="10.00" fill="#000000">temporal_range: RANGE</text>
<polygon fill="none" stroke="#000000" points="1297.5,-110 1297.5,-132 1434.5,-132 1434.5,-110 1297.5,-110"/>
<text text-anchor="start" x="1302.5" y="-118" font-family="Times,serif" font-size="10.00" fill="#000000">data: JSON</text>
<polygon fill="none" stroke="#000000" points="1297.5,-88 1297.5,-110 1434.5,-110 1434.5,-88 1297.5,-88"/>
<text text-anchor="start" x="1302.5" y="-97" font-family="Times,serif" font-style="italic" text-decoration="underline" font-size="10.00" fill="#000000">core_files_id</text>
<text text-anchor="start" x="1354.701" y="-97" font-family="Times,serif" font-size="10.00" fill="#000000">: NUMBER</text>
<polygon fill="none" stroke="#000000" points="1297.5,-66 1297.5,-88 1434.5,-88 1434.5,-66 1297.5,-66"/>
<text text-anchor="start" x="1302.5" y="-74" font-family="Times,serif" font-size="10.00" fill="#000000">createdAt: DATE</text>
<polygon fill="none" stroke="#000000" points="1297.5,-44 1297.5,-66 1434.5,-66 1434.5,-44 1297.5,-44"/>
<text text-anchor="start" x="1302.5" y="-52" font-family="Times,serif" font-size="10.00" fill="#000000">updatedAt: DATE</text>
</g>
<!-- AggradaSpatial -->
<g id="node2" class="node">
<title>AggradaSpatial</title>
<polygon fill="#add8e6" stroke="transparent" points="2089.5,-264 2089.5,-286 2217.5,-286 2217.5,-264 2089.5,-264"/>
<polygon fill="none" stroke="#000000" points="2089.5,-264 2089.5,-286 2217.5,-286 2217.5,-264 2089.5,-264"/>
<text text-anchor="start" x="2122.4" y="-273" font-family="Times,serif" font-weight="bold" font-size="10.00" fill="#000000">AggradaSpatial</text>
<polygon fill="none" stroke="#000000" points="2089.5,-242 2089.5,-264 2217.5,-264 2217.5,-242 2089.5,-242"/>
<text text-anchor="start" x="2094.5" y="-251" font-family="Times,serif" text-decoration="underline" font-size="10.00" fill="#000000">id</text>
<text text-anchor="start" x="2102.279" y="-251" font-family="Times,serif" font-size="10.00" fill="#000000">: NUMBER</text>
<polygon fill="none" stroke="#000000" points="2089.5,-220 2089.5,-242 2217.5,-242 2217.5,-220 2089.5,-220"/>
<text text-anchor="start" x="2094.5" y="-228" font-family="Times,serif" font-size="10.00" fill="#000000">geo_code: STRING</text>
<polygon fill="none" stroke="#000000" points="2089.5,-198 2089.5,-220 2217.5,-220 2217.5,-198 2089.5,-198"/>
<text text-anchor="start" x="2094.5" y="-206" font-family="Times,serif" font-size="10.00" fill="#000000">source: STRING</text>
<polygon fill="none" stroke="#000000" points="2089.5,-176 2089.5,-198 2217.5,-198 2217.5,-176 2089.5,-176"/>
<text text-anchor="start" x="2094.5" y="-184" font-family="Times,serif" font-size="10.00" fill="#000000">start_date: DATE</text>
<polygon fill="none" stroke="#000000" points="2089.5,-154 2089.5,-176 2217.5,-176 2217.5,-154 2089.5,-154"/>
<text text-anchor="start" x="2094.5" y="-162" font-family="Times,serif" font-size="10.00" fill="#000000">metadata: JSON</text>
<polygon fill="none" stroke="#000000" points="2089.5,-132 2089.5,-154 2217.5,-154 2217.5,-132 2089.5,-132"/>
<text text-anchor="start" x="2094.5" y="-140" font-family="Times,serif" font-size="10.00" fill="#000000">admin_level: ENUM</text>
<polygon fill="none" stroke="#000000" points="2089.5,-110 2089.5,-132 2217.5,-132 2217.5,-110 2089.5,-110"/>
<text text-anchor="start" x="2094.2135" y="-118" font-family="Times,serif" font-size="10.00" fill="#000000">raw_geometry: GEOMETRY</text>
<polygon fill="none" stroke="#000000" points="2089.5,-88 2089.5,-110 2217.5,-110 2217.5,-88 2089.5,-88"/>
<text text-anchor="start" x="2094.5" y="-96" font-family="Times,serif" font-size="10.00" fill="#000000">raw_srid: ENUM</text>
<polygon fill="none" stroke="#000000" points="2089.5,-66 2089.5,-88 2217.5,-88 2217.5,-66 2089.5,-66"/>
<text text-anchor="start" x="2094.5" y="-74" font-family="Times,serif" font-size="10.00" fill="#000000">geometry: GEOMETRY</text>
<polygon fill="none" stroke="#000000" points="2089.5,-44 2089.5,-66 2217.5,-66 2217.5,-44 2089.5,-44"/>
<text text-anchor="start" x="2094.5" y="-52" font-family="Times,serif" font-size="10.00" fill="#000000">core_files_id: NUMBER</text>
<polygon fill="none" stroke="#000000" points="2089.5,-22 2089.5,-44 2217.5,-44 2217.5,-22 2089.5,-22"/>
<text text-anchor="start" x="2094.5" y="-30" font-family="Times,serif" font-size="10.00" fill="#000000">createdAt: DATE</text>
<polygon fill="none" stroke="#000000" points="2089.5,0 2089.5,-22 2217.5,-22 2217.5,0 2089.5,0"/>
<text text-anchor="start" x="2094.5" y="-8" font-family="Times,serif" font-size="10.00" fill="#000000">updatedAt: DATE</text>
</g>
<!-- AggradaObservation&#45;&gt;AggradaSpatial -->
<g id="edge1" class="edge">
<title>AggradaObservation&#45;&gt;AggradaSpatial</title>
<path fill="none" stroke="#000000" stroke-width=".75" d="M1440.3444,-143C1594.4218,-143 1944.6983,-143 2089.262,-143"/>
<polygon fill="#000000" stroke="#000000" stroke-width=".75" points="1440.0513,-143.0001 1434.0514,-140.3 1437.0513,-143 1434.0513,-143 1434.0513,-143 1434.0513,-143 1437.0513,-143 1434.0513,-145.7 1440.0513,-143.0001 1440.0513,-143.0001"/>
</g>
<!-- CoreFile -->
<g id="node3" class="node">
<title>CoreFile</title>
<polygon fill="#add8e6" stroke="transparent" points="1007.5,-231 1007.5,-253 1161.5,-253 1161.5,-231 1007.5,-231"/>
<polygon fill="none" stroke="#000000" points="1007.5,-231 1007.5,-253 1161.5,-253 1161.5,-231 1007.5,-231"/>
<text text-anchor="start" x="1067.0035" y="-240" font-family="Times,serif" font-weight="bold" font-size="10.00" fill="#000000">CoreFile</text>
<polygon fill="none" stroke="#000000" points="1007.5,-209 1007.5,-231 1161.5,-231 1161.5,-209 1007.5,-209"/>
<text text-anchor="start" x="1012.5" y="-218" font-family="Times,serif" text-decoration="underline" font-size="10.00" fill="#000000">id</text>
<text text-anchor="start" x="1020.279" y="-218" font-family="Times,serif" font-size="10.00" fill="#000000">: NUMBER</text>
<polygon fill="none" stroke="#000000" points="1007.5,-187 1007.5,-209 1161.5,-209 1161.5,-187 1007.5,-187"/>
<text text-anchor="start" x="1012.5" y="-195" font-family="Times,serif" font-size="10.00" fill="#000000">filename: STRING</text>
<polygon fill="none" stroke="#000000" points="1007.5,-165 1007.5,-187 1161.5,-187 1161.5,-165 1007.5,-165"/>
<text text-anchor="start" x="1012.5" y="-173" font-family="Times,serif" font-size="10.00" fill="#000000">filepath: STRING</text>
<polygon fill="none" stroke="#000000" points="1007.5,-143 1007.5,-165 1161.5,-165 1161.5,-143 1007.5,-143"/>
<text text-anchor="start" x="1012.5" y="-151" font-family="Times,serif" font-size="10.00" fill="#000000">file_size_kb: NUMBER</text>
<polygon fill="none" stroke="#000000" points="1007.5,-121 1007.5,-143 1161.5,-143 1161.5,-121 1007.5,-121"/>
<text text-anchor="start" x="1012.5" y="-129" font-family="Times,serif" font-size="10.00" fill="#000000">file_type: STRING</text>
<polygon fill="none" stroke="#000000" points="1007.5,-99 1007.5,-121 1161.5,-121 1161.5,-99 1007.5,-99"/>
<text text-anchor="start" x="1012.5" y="-107" font-family="Times,serif" font-size="10.00" fill="#000000">checksum: STRING</text>
<polygon fill="none" stroke="#000000" points="1007.5,-77 1007.5,-99 1161.5,-99 1161.5,-77 1007.5,-77"/>
<text text-anchor="start" x="1012.1565" y="-86" font-family="Times,serif" font-style="italic" text-decoration="underline" font-size="10.00" fill="#000000">core_file_collections_id</text>
<text text-anchor="start" x="1108.7905" y="-86" font-family="Times,serif" font-size="10.00" fill="#000000">: NUMBER</text>
<polygon fill="none" stroke="#000000" points="1007.5,-55 1007.5,-77 1161.5,-77 1161.5,-55 1007.5,-55"/>
<text text-anchor="start" x="1012.5" y="-63" font-family="Times,serif" font-size="10.00" fill="#000000">createdAt: DATE</text>
<polygon fill="none" stroke="#000000" points="1007.5,-33 1007.5,-55 1161.5,-55 1161.5,-33 1007.5,-33"/>
<text text-anchor="start" x="1012.5" y="-41" font-family="Times,serif" font-size="10.00" fill="#000000">updatedAt: DATE</text>
</g>
<!-- CoreFile&#45;&gt;AggradaObservation -->
<g id="edge5" class="edge">
<title>CoreFile&#45;&gt;AggradaObservation</title>
<path fill="none" stroke="#000000" stroke-width=".75" d="M1161.6562,-143C1201.7545,-143 1250.5587,-143 1290.3592,-143"/>
<polygon fill="#000000" stroke="#000000" stroke-width=".75" points="1290.6669,-143.0001 1296.667,-145.7 1293.6669,-143 1296.6669,-143 1296.6669,-143 1296.6669,-143 1293.6669,-143 1296.6669,-140.3 1290.6669,-143.0001 1290.6669,-143.0001"/>
</g>
<!-- CoreFileCollection -->
<g id="node4" class="node">
<title>CoreFileCollection</title>
<polygon fill="#add8e6" stroke="transparent" points="741.5,-231 741.5,-253 843.5,-253 843.5,-231 741.5,-231"/>
<polygon fill="none" stroke="#000000" points="741.5,-231 741.5,-253 843.5,-253 843.5,-231 741.5,-231"/>
<text text-anchor="start" x="754.172" y="-240" font-family="Times,serif" font-weight="bold" font-size="10.00" fill="#000000">CoreFileCollection</text>
<polygon fill="none" stroke="#000000" points="741.5,-209 741.5,-231 843.5,-231 843.5,-209 741.5,-209"/>
<text text-anchor="start" x="746.5" y="-218" font-family="Times,serif" text-decoration="underline" font-size="10.00" fill="#000000">id</text>
<text text-anchor="start" x="754.279" y="-218" font-family="Times,serif" font-size="10.00" fill="#000000">: NUMBER</text>
<polygon fill="none" stroke="#000000" points="741.5,-187 741.5,-209 843.5,-209 843.5,-187 741.5,-187"/>
<text text-anchor="start" x="746.5" y="-195" font-family="Times,serif" font-size="10.00" fill="#000000">name: STRING</text>
<polygon fill="none" stroke="#000000" points="741.5,-165 741.5,-187 843.5,-187 843.5,-165 741.5,-165"/>
<text text-anchor="start" x="746.5" y="-173" font-family="Times,serif" font-size="10.00" fill="#000000">privacy: ENUM</text>
<polygon fill="none" stroke="#000000" points="741.5,-143 741.5,-165 843.5,-165 843.5,-143 741.5,-143"/>
<text text-anchor="start" x="746.5" y="-151" font-family="Times,serif" font-size="10.00" fill="#000000">is_raw: BOOLEAN</text>
<polygon fill="none" stroke="#000000" points="741.5,-121 741.5,-143 843.5,-143 843.5,-121 741.5,-121"/>
<text text-anchor="start" x="746.258" y="-129" font-family="Times,serif" font-size="10.00" fill="#000000">is_Spatial: BOOLEAN</text>
<polygon fill="none" stroke="#000000" points="741.5,-99 741.5,-121 843.5,-121 843.5,-99 741.5,-99"/>
<text text-anchor="start" x="746.5" y="-107" font-family="Times,serif" font-size="10.00" fill="#000000">description: TEXT</text>
<polygon fill="none" stroke="#000000" points="741.5,-77 741.5,-99 843.5,-99 843.5,-77 741.5,-77"/>
<text text-anchor="start" x="746.5" y="-85" font-family="Times,serif" font-size="10.00" fill="#000000">tags: ARRAY</text>
<polygon fill="none" stroke="#000000" points="741.5,-55 741.5,-77 843.5,-77 843.5,-55 741.5,-55"/>
<text text-anchor="start" x="746.5" y="-63" font-family="Times,serif" font-size="10.00" fill="#000000">createdAt: DATE</text>
<polygon fill="none" stroke="#000000" points="741.5,-33 741.5,-55 843.5,-55 843.5,-33 741.5,-33"/>
<text text-anchor="start" x="746.5" y="-41" font-family="Times,serif" font-size="10.00" fill="#000000">updatedAt: DATE</text>
</g>
<!-- CoreFile&#45;&gt;CoreFileCollection -->
<g id="edge2" class="edge">
<title>CoreFile&#45;&gt;CoreFileCollection</title>
<path fill="none" stroke="#000000" stroke-width=".75" d="M1001.2731,-143C950.5193,-143 887.2643,-143 843.7607,-143"/>
<polygon fill="#000000" stroke="#000000" stroke-width=".75" points="1001.3985,-143.0001 1007.3985,-145.7 1004.3985,-143 1007.3985,-143 1007.3985,-143 1007.3985,-143 1004.3985,-143 1007.3984,-140.3 1001.3985,-143.0001 1001.3985,-143.0001"/>
</g>
<!-- CoreFileCollectionUser -->
<g id="node5" class="node">
<title>CoreFileCollectionUser</title>
<polygon fill="#add8e6" stroke="transparent" points="456.5,-187 456.5,-209 610.5,-209 610.5,-187 456.5,-187"/>
<polygon fill="none" stroke="#000000" points="456.5,-187 456.5,-209 610.5,-209 610.5,-187 456.5,-187"/>
<text text-anchor="start" x="485.734" y="-196" font-family="Times,serif" font-weight="bold" font-size="10.00" fill="#000000">CoreFileCollectionUser</text>
<polygon fill="none" stroke="#000000" points="456.5,-165 456.5,-187 610.5,-187 610.5,-165 456.5,-165"/>
<text text-anchor="start" x="461.5" y="-174" font-family="Times,serif" text-decoration="underline" font-size="10.00" fill="#000000">core_users_id</text>
<text text-anchor="start" x="517.032" y="-174" font-family="Times,serif" font-size="10.00" fill="#000000">: NUMBER</text>
<polygon fill="none" stroke="#000000" points="456.5,-143 456.5,-165 610.5,-165 610.5,-143 456.5,-143"/>
<text text-anchor="start" x="461.1565" y="-152" font-family="Times,serif" text-decoration="underline" font-size="10.00" fill="#000000">core_file_collections_id</text>
<text text-anchor="start" x="557.7905" y="-152" font-family="Times,serif" font-size="10.00" fill="#000000">: NUMBER</text>
<polygon fill="none" stroke="#000000" points="456.5,-121 456.5,-143 610.5,-143 610.5,-121 456.5,-121"/>
<text text-anchor="start" x="461.5" y="-129" font-family="Times,serif" font-size="10.00" fill="#000000">permission_level: ENUM</text>
<polygon fill="none" stroke="#000000" points="456.5,-99 456.5,-121 610.5,-121 610.5,-99 456.5,-99"/>
<text text-anchor="start" x="461.5" y="-107" font-family="Times,serif" font-size="10.00" fill="#000000">createdAt: DATE</text>
<polygon fill="none" stroke="#000000" points="456.5,-77 456.5,-99 610.5,-99 610.5,-77 456.5,-77"/>
<text text-anchor="start" x="461.5" y="-85" font-family="Times,serif" font-size="10.00" fill="#000000">updatedAt: DATE</text>
</g>
<!-- CoreFileCollectionUser&#45;&gt;CoreFileCollection -->
<g id="edge4" class="edge">
<title>CoreFileCollectionUser&#45;&gt;CoreFileCollection</title>
<path fill="none" stroke="#000000" stroke-width=".75" d="M616.7502,-143C657.6686,-143 705.6793,-143 741.1716,-143"/>
<polygon fill="#000000" stroke="#000000" stroke-width=".75" points="616.5073,-143.0001 610.5073,-140.3 613.5073,-143 610.5073,-143 610.5073,-143 610.5073,-143 613.5073,-143 610.5073,-145.7 616.5073,-143.0001 616.5073,-143.0001"/>
</g>
<!-- CoreUser -->
<g id="node8" class="node">
<title>CoreUser</title>
<polygon fill="#add8e6" stroke="transparent" points="262.5,-187 262.5,-209 374.5,-209 374.5,-187 262.5,-187"/>
<polygon fill="none" stroke="#000000" points="262.5,-187 262.5,-209 374.5,-209 374.5,-187 262.5,-187"/>
<text text-anchor="start" x="299.3435" y="-196" font-family="Times,serif" font-weight="bold" font-size="10.00" fill="#000000">CoreUser</text>
<polygon fill="none" stroke="#000000" points="262.5,-165 262.5,-187 374.5,-187 374.5,-165 262.5,-165"/>
<text text-anchor="start" x="267.5" y="-174" font-family="Times,serif" text-decoration="underline" font-size="10.00" fill="#000000">id</text>
<text text-anchor="start" x="275.279" y="-174" font-family="Times,serif" font-size="10.00" fill="#000000">: NUMBER</text>
<polygon fill="none" stroke="#000000" points="262.5,-143 262.5,-165 374.5,-165 374.5,-143 262.5,-143"/>
<text text-anchor="start" x="267.5" y="-151" font-family="Times,serif" font-size="10.00" fill="#000000">email: STRING</text>
<polygon fill="none" stroke="#000000" points="262.5,-121 262.5,-143 374.5,-143 374.5,-121 262.5,-121"/>
<text text-anchor="start" x="267.262" y="-129" font-family="Times,serif" font-size="10.00" fill="#000000">password_hash: STRING</text>
<polygon fill="none" stroke="#000000" points="262.5,-99 262.5,-121 374.5,-121 374.5,-99 262.5,-99"/>
<text text-anchor="start" x="267.5" y="-107" font-family="Times,serif" font-size="10.00" fill="#000000">createdAt: DATE</text>
<polygon fill="none" stroke="#000000" points="262.5,-77 262.5,-99 374.5,-99 374.5,-77 262.5,-77"/>
<text text-anchor="start" x="267.5" y="-85" font-family="Times,serif" font-size="10.00" fill="#000000">updatedAt: DATE</text>
</g>
<!-- CoreFileCollectionUser&#45;&gt;CoreUser -->
<g id="edge3" class="edge">
<title>CoreFileCollectionUser&#45;&gt;CoreUser</title>
<path fill="none" stroke="#000000" stroke-width=".75" d="M450.4347,-143C425.1024,-143 397.8585,-143 374.743,-143"/>
<polygon fill="#000000" stroke="#000000" stroke-width=".75" points="450.4873,-143.0001 456.4874,-145.7 453.4873,-143 456.4873,-143 456.4873,-143 456.4873,-143 453.4873,-143 456.4873,-140.3 450.4873,-143.0001 450.4873,-143.0001"/>
</g>
<!-- CoreLog -->
<g id="node6" class="node">
<title>CoreLog</title>
<polygon fill="#add8e6" stroke="transparent" points=".5,-231 .5,-253 141.5,-253 141.5,-231 .5,-231"/>
<polygon fill="none" stroke="#000000" points=".5,-231 .5,-253 141.5,-253 141.5,-231 .5,-231"/>
<text text-anchor="start" x="53.227" y="-240" font-family="Times,serif" font-weight="bold" font-size="10.00" fill="#000000">CoreLog</text>
<polygon fill="none" stroke="#000000" points=".5,-209 .5,-231 141.5,-231 141.5,-209 .5,-209"/>
<text text-anchor="start" x="5.5" y="-218" font-family="Times,serif" text-decoration="underline" font-size="10.00" fill="#000000">id</text>
<text text-anchor="start" x="13.279" y="-218" font-family="Times,serif" font-size="10.00" fill="#000000">: NUMBER</text>
<polygon fill="none" stroke="#000000" points=".5,-187 .5,-209 141.5,-209 141.5,-187 .5,-187"/>
<text text-anchor="start" x="5.5" y="-195" font-family="Times,serif" font-size="10.00" fill="#000000">type: ENUM</text>
<polygon fill="none" stroke="#000000" points=".5,-165 .5,-187 141.5,-187 141.5,-165 .5,-165"/>
<text text-anchor="start" x="5.5" y="-173" font-family="Times,serif" font-size="10.00" fill="#000000">message: STRING</text>
<polygon fill="none" stroke="#000000" points=".5,-143 .5,-165 141.5,-165 141.5,-143 .5,-143"/>
<text text-anchor="start" x="5.5" y="-151" font-family="Times,serif" font-size="10.00" fill="#000000">source: STRING</text>
<polygon fill="none" stroke="#000000" points=".5,-121 .5,-143 141.5,-143 141.5,-121 .5,-121"/>
<text text-anchor="start" x="5.5" y="-129" font-family="Times,serif" font-size="10.00" fill="#000000">context: JSON</text>
<polygon fill="none" stroke="#000000" points=".5,-99 .5,-121 141.5,-121 141.5,-99 .5,-99"/>
<text text-anchor="start" x="5.5" y="-108" font-family="Times,serif" font-style="italic" text-decoration="underline" font-size="10.00" fill="#000000">core_users_id</text>
<text text-anchor="start" x="61.032" y="-108" font-family="Times,serif" font-size="10.00" fill="#000000">: NUMBER</text>
<polygon fill="none" stroke="#000000" points=".5,-77 .5,-99 141.5,-99 141.5,-77 .5,-77"/>
<text text-anchor="start" x="5.0445" y="-85" font-family="Times,serif" font-size="10.00" fill="#000000">related_core_logs_id: NUMBER</text>
<polygon fill="none" stroke="#000000" points=".5,-55 .5,-77 141.5,-77 141.5,-55 .5,-55"/>
<text text-anchor="start" x="5.5" y="-63" font-family="Times,serif" font-size="10.00" fill="#000000">createdAt: DATE</text>
<polygon fill="none" stroke="#000000" points=".5,-33 .5,-55 141.5,-55 141.5,-33 .5,-33"/>
<text text-anchor="start" x="5.5" y="-41" font-family="Times,serif" font-size="10.00" fill="#000000">updatedAt: DATE</text>
</g>
<!-- CoreOauthToken -->
<g id="node7" class="node">
<title>CoreOauthToken</title>
<polygon fill="#add8e6" stroke="transparent" points="1321.5,-418 1321.5,-440 1404.5,-440 1404.5,-418 1321.5,-418"/>
<polygon fill="none" stroke="#000000" points="1321.5,-418 1321.5,-440 1404.5,-440 1404.5,-418 1321.5,-418"/>
<text text-anchor="start" x="1328.289" y="-427" font-family="Times,serif" font-weight="bold" font-size="10.00" fill="#000000">CoreOauthToken</text>
<polygon fill="none" stroke="#000000" points="1321.5,-396 1321.5,-418 1404.5,-418 1404.5,-396 1321.5,-396"/>
<text text-anchor="start" x="1326.5" y="-405" font-family="Times,serif" text-decoration="underline" font-size="10.00" fill="#000000">id</text>
<text text-anchor="start" x="1334.279" y="-405" font-family="Times,serif" font-size="10.00" fill="#000000">: NUMBER</text>
<polygon fill="none" stroke="#000000" points="1321.5,-374 1321.5,-396 1404.5,-396 1404.5,-374 1321.5,-374"/>
<text text-anchor="start" x="1326.5" y="-382" font-family="Times,serif" font-size="10.00" fill="#000000">token: JSON</text>
<polygon fill="none" stroke="#000000" points="1321.5,-352 1321.5,-374 1404.5,-374 1404.5,-352 1321.5,-352"/>
<text text-anchor="start" x="1326.5" y="-360" font-family="Times,serif" font-size="10.00" fill="#000000">createdAt: DATE</text>
<polygon fill="none" stroke="#000000" points="1321.5,-330 1321.5,-352 1404.5,-352 1404.5,-330 1321.5,-330"/>
<text text-anchor="start" x="1326.205" y="-338" font-family="Times,serif" font-size="10.00" fill="#000000">updatedAt: DATE</text>
</g>
<!-- CoreUser&#45;&gt;CoreLog -->
<g id="edge6" class="edge">
<title>CoreUser&#45;&gt;CoreLog</title>
<path fill="none" stroke="#000000" stroke-width=".75" d="M262.225,-143C228.316,-143 184.6602,-143 147.5738,-143"/>
<polygon fill="#000000" stroke="#000000" stroke-width=".75" points="147.2065,-143.0001 141.2065,-140.3 144.2065,-143 141.2065,-143 141.2065,-143 141.2065,-143 144.2065,-143 141.2064,-145.7 147.2065,-143.0001 147.2065,-143.0001"/>
</g>
</g>
</svg>
