<?xml version="1.0" encoding="UTF-8" standalone="no"?>
<!DOCTYPE svg PUBLIC "-//W3C//DTD SVG 1.1//EN"
 "http://www.w3.org/Graphics/SVG/1.1/DTD/svg11.dtd">
<!-- Generated by graphviz version 2.40.1 (20161225.0304)
 -->
<!-- Title: models_diagram Pages: 1 -->
<svg width="1004pt" height="877pt"
 viewBox="0.00 0.00 1004.05 876.58" xmlns="http://www.w3.org/2000/svg" xmlns:xlink="http://www.w3.org/1999/xlink">
<g id="graph0" class="graph" transform="scale(1 1) rotate(0) translate(36 840.5816)">
<title>models_diagram</title>
<polygon fill="#ffffff" stroke="transparent" points="-36,36 -36,-840.5816 968.0508,-840.5816 968.0508,36 -36,36"/>
<!-- AggRaDaEntity -->
<g id="node1" class="node">
<title>AggRaDaEntity</title>
<polygon fill="#add8e6" stroke="transparent" points="0,-480.0013 0,-502.0013 100,-502.0013 100,-480.0013 0,-480.0013"/>
<polygon fill="none" stroke="#000000" points="0,-480.0013 0,-502.0013 100,-502.0013 100,-480.0013 0,-480.0013"/>
<text text-anchor="start" x="17.7845" y="-489.0013" font-family="Times,serif" font-weight="bold" font-size="10.00" fill="#000000">AggRaDaEntity</text>
<polygon fill="none" stroke="#000000" points="0,-458.0013 0,-480.0013 100,-480.0013 100,-458.0013 0,-458.0013"/>
<text text-anchor="start" x="5" y="-467.0013" font-family="Times,serif" text-decoration="underline" font-size="10.00" fill="#000000">id</text>
<text text-anchor="start" x="12.779" y="-467.0013" font-family="Times,serif" font-size="10.00" fill="#000000">: NUMBER</text>
<polygon fill="none" stroke="#000000" points="0,-436.0013 0,-458.0013 100,-458.0013 100,-436.0013 0,-436.0013"/>
<text text-anchor="start" x="4.592" y="-444.0013" font-family="Times,serif" font-size="10.00" fill="#000000">entity_name: STRING</text>
<polygon fill="none" stroke="#000000" points="0,-414.0013 0,-436.0013 100,-436.0013 100,-414.0013 0,-414.0013"/>
<text text-anchor="start" x="5" y="-422.0013" font-family="Times,serif" font-size="10.00" fill="#000000">entity_type: STRING</text>
<polygon fill="none" stroke="#000000" points="0,-392.0013 0,-414.0013 100,-414.0013 100,-392.0013 0,-392.0013"/>
<text text-anchor="start" x="5" y="-400.0013" font-family="Times,serif" font-size="10.00" fill="#000000">metadata: JSON</text>
<polygon fill="none" stroke="#000000" points="0,-370.0013 0,-392.0013 100,-392.0013 100,-370.0013 0,-370.0013"/>
<text text-anchor="start" x="5" y="-378.0013" font-family="Times,serif" font-size="10.00" fill="#000000">createdAt: DATE</text>
<polygon fill="none" stroke="#000000" points="0,-348.0013 0,-370.0013 100,-370.0013 100,-348.0013 0,-348.0013"/>
<text text-anchor="start" x="5" y="-356.0013" font-family="Times,serif" font-size="10.00" fill="#000000">updatedAt: DATE</text>
</g>
<!-- AggRaDaObservation -->
<g id="node2" class="node">
<title>AggRaDaObservation</title>
<polygon fill="#add8e6" stroke="transparent" points="470.4863,-613.446 470.4863,-635.446 603.4863,-635.446 603.4863,-613.446 470.4863,-613.446"/>
<polygon fill="none" stroke="#000000" points="470.4863,-613.446 470.4863,-635.446 603.4863,-635.446 603.4863,-613.446 470.4863,-613.446"/>
<text text-anchor="start" x="492.5573" y="-622.446" font-family="Times,serif" font-weight="bold" font-size="10.00" fill="#000000">AggRaDaObservation</text>
<polygon fill="none" stroke="#000000" points="470.4863,-591.446 470.4863,-613.446 603.4863,-613.446 603.4863,-591.446 470.4863,-591.446"/>
<text text-anchor="start" x="475.4863" y="-600.446" font-family="Times,serif" text-decoration="underline" font-size="10.00" fill="#000000">id</text>
<text text-anchor="start" x="483.2653" y="-600.446" font-family="Times,serif" font-size="10.00" fill="#000000">: NUMBER</text>
<polygon fill="none" stroke="#000000" points="470.4863,-569.446 470.4863,-591.446 603.4863,-591.446 603.4863,-569.446 470.4863,-569.446"/>
<text text-anchor="start" x="475.1953" y="-578.446" font-family="Times,serif" font-style="italic" text-decoration="underline" font-size="10.00" fill="#000000">aggrada_spatial_id</text>
<text text-anchor="start" x="550.7243" y="-578.446" font-family="Times,serif" font-size="10.00" fill="#000000">: NUMBER</text>
<polygon fill="none" stroke="#000000" points="470.4863,-547.446 470.4863,-569.446 603.4863,-569.446 603.4863,-547.446 470.4863,-547.446"/>
<text text-anchor="start" x="475.4863" y="-556.446" font-family="Times,serif" font-style="italic" text-decoration="underline" font-size="10.00" fill="#000000">entity_id</text>
<text text-anchor="start" x="511.0413" y="-556.446" font-family="Times,serif" font-size="10.00" fill="#000000">: NUMBER</text>
<polygon fill="none" stroke="#000000" points="470.4863,-525.446 470.4863,-547.446 603.4863,-547.446 603.4863,-525.446 470.4863,-525.446"/>
<text text-anchor="start" x="475.4863" y="-533.446" font-family="Times,serif" font-size="10.00" fill="#000000">temporal_range: RANGE</text>
<polygon fill="none" stroke="#000000" points="470.4863,-503.446 470.4863,-525.446 603.4863,-525.446 603.4863,-503.446 470.4863,-503.446"/>
<text text-anchor="start" x="475.4863" y="-511.446" font-family="Times,serif" font-size="10.00" fill="#000000">data: JSON</text>
<polygon fill="none" stroke="#000000" points="470.4863,-481.446 470.4863,-503.446 603.4863,-503.446 603.4863,-481.446 470.4863,-481.446"/>
<text text-anchor="start" x="475.4863" y="-490.446" font-family="Times,serif" font-style="italic" text-decoration="underline" font-size="10.00" fill="#000000">coreLog_id</text>
<text text-anchor="start" x="521.5813" y="-490.446" font-family="Times,serif" font-size="10.00" fill="#000000">: NUMBER</text>
<polygon fill="none" stroke="#000000" points="470.4863,-459.446 470.4863,-481.446 603.4863,-481.446 603.4863,-459.446 470.4863,-459.446"/>
<text text-anchor="start" x="475.4863" y="-468.446" font-family="Times,serif" font-style="italic" text-decoration="underline" font-size="10.00" fill="#000000">core_file_id</text>
<text text-anchor="start" x="523.7983" y="-468.446" font-family="Times,serif" font-size="10.00" fill="#000000">: NUMBER</text>
</g>
<!-- AggRaDaObservation&#45;&gt;AggRaDaEntity -->
<g id="edge2" class="edge">
<title>AggRaDaObservation&#45;&gt;AggRaDaEntity</title>
<path fill="none" stroke="#000000" stroke-width=".75" d="M463.9888,-529.1989C364.1366,-504.067 186.8371,-459.4421 100.3102,-437.664"/>
<polygon fill="#000000" stroke="#000000" stroke-width=".75" points="464.044,-529.2128 469.2035,-533.2956 466.9533,-529.945 469.8625,-530.6773 469.8625,-530.6773 469.8625,-530.6773 466.9533,-529.945 470.5216,-528.059 464.044,-529.2128 464.044,-529.2128"/>
</g>
<!-- AggRaDaSpatial -->
<g id="node3" class="node">
<title>AggRaDaSpatial</title>
<polygon fill="#add8e6" stroke="transparent" points="346.9126,-782.5816 346.9126,-804.5816 454.9126,-804.5816 454.9126,-782.5816 346.9126,-782.5816"/>
<polygon fill="none" stroke="#000000" points="346.9126,-782.5816 346.9126,-804.5816 454.9126,-804.5816 454.9126,-782.5816 346.9126,-782.5816"/>
<text text-anchor="start" x="367.0331" y="-791.5816" font-family="Times,serif" font-weight="bold" font-size="10.00" fill="#000000">AggRaDaSpatial</text>
<polygon fill="none" stroke="#000000" points="346.9126,-760.5816 346.9126,-782.5816 454.9126,-782.5816 454.9126,-760.5816 346.9126,-760.5816"/>
<text text-anchor="start" x="351.9126" y="-769.5816" font-family="Times,serif" text-decoration="underline" font-size="10.00" fill="#000000">id</text>
<text text-anchor="start" x="359.6916" y="-769.5816" font-family="Times,serif" font-size="10.00" fill="#000000">: NUMBER</text>
<polygon fill="none" stroke="#000000" points="346.9126,-738.5816 346.9126,-760.5816 454.9126,-760.5816 454.9126,-738.5816 346.9126,-738.5816"/>
<text text-anchor="start" x="351.9126" y="-746.5816" font-family="Times,serif" font-size="10.00" fill="#000000">place_name: STRING</text>
<polygon fill="none" stroke="#000000" points="346.9126,-716.5816 346.9126,-738.5816 454.9126,-738.5816 454.9126,-716.5816 346.9126,-716.5816"/>
<text text-anchor="start" x="351.9126" y="-724.5816" font-family="Times,serif" font-size="10.00" fill="#000000">place_code: STRING</text>
<polygon fill="none" stroke="#000000" points="346.9126,-694.5816 346.9126,-716.5816 454.9126,-716.5816 454.9126,-694.5816 346.9126,-694.5816"/>
<text text-anchor="start" x="351.6196" y="-702.5816" font-family="Times,serif" font-size="10.00" fill="#000000">geometry: GEOMETRY</text>
<polygon fill="none" stroke="#000000" points="346.9126,-672.5816 346.9126,-694.5816 454.9126,-694.5816 454.9126,-672.5816 346.9126,-672.5816"/>
<text text-anchor="start" x="351.9126" y="-680.5816" font-family="Times,serif" font-size="10.00" fill="#000000">start_date: DATE</text>
</g>
<!-- AggRaDaObservation&#45;&gt;AggRaDaSpatial -->
<g id="edge1" class="edge">
<title>AggRaDaObservation&#45;&gt;AggRaDaSpatial</title>
<path fill="none" stroke="#000000" stroke-width=".75" d="M470.5349,-640.4261C462.8624,-651.243 455.1584,-662.1042 447.8167,-672.4548"/>
<polygon fill="#000000" stroke="#000000" stroke-width=".75" points="470.5852,-640.3551 476.2588,-637.0233 472.3209,-637.9082 474.0565,-635.4612 474.0565,-635.4612 474.0565,-635.4612 472.3209,-637.9082 471.8543,-633.8991 470.5852,-640.3551 470.5852,-640.3551"/>
</g>
<!-- CoreFile -->
<g id="node4" class="node">
<title>CoreFile</title>
<polygon fill="#add8e6" stroke="transparent" points="719.9852,-628.8725 719.9852,-650.8725 869.9852,-650.8725 869.9852,-628.8725 719.9852,-628.8725"/>
<polygon fill="none" stroke="#000000" points="719.9852,-628.8725 719.9852,-650.8725 869.9852,-650.8725 869.9852,-628.8725 719.9852,-628.8725"/>
<text text-anchor="start" x="777.4887" y="-637.8725" font-family="Times,serif" font-weight="bold" font-size="10.00" fill="#000000">CoreFile</text>
<polygon fill="none" stroke="#000000" points="719.9852,-606.8725 719.9852,-628.8725 869.9852,-628.8725 869.9852,-606.8725 719.9852,-606.8725"/>
<text text-anchor="start" x="724.9852" y="-615.8725" font-family="Times,serif" text-decoration="underline" font-size="10.00" fill="#000000">id</text>
<text text-anchor="start" x="732.7642" y="-615.8725" font-family="Times,serif" font-size="10.00" fill="#000000">: NUMBER</text>
<polygon fill="none" stroke="#000000" points="719.9852,-584.8725 719.9852,-606.8725 869.9852,-606.8725 869.9852,-584.8725 719.9852,-584.8725"/>
<text text-anchor="start" x="724.9852" y="-592.8725" font-family="Times,serif" font-size="10.00" fill="#000000">filename: STRING</text>
<polygon fill="none" stroke="#000000" points="719.9852,-562.8725 719.9852,-584.8725 869.9852,-584.8725 869.9852,-562.8725 719.9852,-562.8725"/>
<text text-anchor="start" x="724.9852" y="-570.8725" font-family="Times,serif" font-size="10.00" fill="#000000">filepath: STRING</text>
<polygon fill="none" stroke="#000000" points="719.9852,-540.8725 719.9852,-562.8725 869.9852,-562.8725 869.9852,-540.8725 719.9852,-540.8725"/>
<text text-anchor="start" x="724.9852" y="-548.8725" font-family="Times,serif" font-size="10.00" fill="#000000">file_size_kb: NUMBER</text>
<polygon fill="none" stroke="#000000" points="719.9852,-518.8725 719.9852,-540.8725 869.9852,-540.8725 869.9852,-518.8725 719.9852,-518.8725"/>
<text text-anchor="start" x="724.9852" y="-526.8725" font-family="Times,serif" font-size="10.00" fill="#000000">file_type: STRING</text>
<polygon fill="none" stroke="#000000" points="719.9852,-496.8725 719.9852,-518.8725 869.9852,-518.8725 869.9852,-496.8725 719.9852,-496.8725"/>
<text text-anchor="start" x="724.9852" y="-504.8725" font-family="Times,serif" font-size="10.00" fill="#000000">checksum: STRING</text>
<polygon fill="none" stroke="#000000" points="719.9852,-474.8725 719.9852,-496.8725 869.9852,-496.8725 869.9852,-474.8725 719.9852,-474.8725"/>
<text text-anchor="start" x="724.5862" y="-483.8725" font-family="Times,serif" font-style="italic" text-decoration="underline" font-size="10.00" fill="#000000">core_file_collection_id</text>
<text text-anchor="start" x="817.3312" y="-483.8725" font-family="Times,serif" font-size="10.00" fill="#000000">: NUMBER</text>
<polygon fill="none" stroke="#000000" points="719.9852,-452.8725 719.9852,-474.8725 869.9852,-474.8725 869.9852,-452.8725 719.9852,-452.8725"/>
<text text-anchor="start" x="724.9852" y="-460.8725" font-family="Times,serif" font-size="10.00" fill="#000000">createdAt: DATE</text>
<polygon fill="none" stroke="#000000" points="719.9852,-430.8725 719.9852,-452.8725 869.9852,-452.8725 869.9852,-430.8725 719.9852,-430.8725"/>
<text text-anchor="start" x="724.9852" y="-438.8725" font-family="Times,serif" font-size="10.00" fill="#000000">updatedAt: DATE</text>
</g>
<!-- AggRaDaObservation&#45;&gt;CoreFile -->
<g id="edge4" class="edge">
<title>AggRaDaObservation&#45;&gt;CoreFile</title>
<path fill="none" stroke="#000000" stroke-width=".75" d="M609.4247,-545.5912C643.9632,-544.7129 685.1702,-543.665 719.9698,-542.7801"/>
<polygon fill="#000000" stroke="#000000" stroke-width=".75" points="609.0543,-545.6005 602.9875,-543.054 606.0552,-545.6768 603.0562,-545.7531 603.0562,-545.7531 603.0562,-545.7531 606.0552,-545.6768 603.1249,-548.4523 609.0543,-545.6005 609.0543,-545.6005"/>
</g>
<!-- CoreLog -->
<g id="node7" class="node">
<title>CoreLog</title>
<polygon fill="#add8e6" stroke="transparent" points="271.7153,-467.6782 271.7153,-489.6782 407.7153,-489.6782 407.7153,-467.6782 271.7153,-467.6782"/>
<polygon fill="none" stroke="#000000" points="271.7153,-467.6782 271.7153,-489.6782 407.7153,-489.6782 407.7153,-467.6782 271.7153,-467.6782"/>
<text text-anchor="start" x="321.9423" y="-476.6782" font-family="Times,serif" font-weight="bold" font-size="10.00" fill="#000000">CoreLog</text>
<polygon fill="none" stroke="#000000" points="271.7153,-445.6782 271.7153,-467.6782 407.7153,-467.6782 407.7153,-445.6782 271.7153,-445.6782"/>
<text text-anchor="start" x="276.7153" y="-454.6782" font-family="Times,serif" text-decoration="underline" font-size="10.00" fill="#000000">id</text>
<text text-anchor="start" x="284.4943" y="-454.6782" font-family="Times,serif" font-size="10.00" fill="#000000">: NUMBER</text>
<polygon fill="none" stroke="#000000" points="271.7153,-423.6782 271.7153,-445.6782 407.7153,-445.6782 407.7153,-423.6782 271.7153,-423.6782"/>
<text text-anchor="start" x="276.7153" y="-431.6782" font-family="Times,serif" font-size="10.00" fill="#000000">level: ENUM</text>
<polygon fill="none" stroke="#000000" points="271.7153,-401.6782 271.7153,-423.6782 407.7153,-423.6782 407.7153,-401.6782 271.7153,-401.6782"/>
<text text-anchor="start" x="276.7153" y="-409.6782" font-family="Times,serif" font-size="10.00" fill="#000000">message: STRING</text>
<polygon fill="none" stroke="#000000" points="271.7153,-379.6782 271.7153,-401.6782 407.7153,-401.6782 407.7153,-379.6782 271.7153,-379.6782"/>
<text text-anchor="start" x="276.7153" y="-387.6782" font-family="Times,serif" font-size="10.00" fill="#000000">source: STRING</text>
<polygon fill="none" stroke="#000000" points="271.7153,-357.6782 271.7153,-379.6782 407.7153,-379.6782 407.7153,-357.6782 271.7153,-357.6782"/>
<text text-anchor="start" x="276.7153" y="-365.6782" font-family="Times,serif" font-size="10.00" fill="#000000">context: JSON</text>
<polygon fill="none" stroke="#000000" points="271.7153,-335.6782 271.7153,-357.6782 407.7153,-357.6782 407.7153,-335.6782 271.7153,-335.6782"/>
<text text-anchor="start" x="276.7153" y="-344.6782" font-family="Times,serif" font-style="italic" text-decoration="underline" font-size="10.00" fill="#000000">core_user_email</text>
<text text-anchor="start" x="342.7943" y="-344.6782" font-family="Times,serif" font-size="10.00" fill="#000000">: TEXT</text>
<polygon fill="none" stroke="#000000" points="271.7153,-313.6782 271.7153,-335.6782 407.7153,-335.6782 407.7153,-313.6782 271.7153,-313.6782"/>
<text text-anchor="start" x="276.5393" y="-321.6782" font-family="Times,serif" font-size="10.00" fill="#000000">related_coreLog_id: NUMBER</text>
<polygon fill="none" stroke="#000000" points="271.7153,-291.6782 271.7153,-313.6782 407.7153,-313.6782 407.7153,-291.6782 271.7153,-291.6782"/>
<text text-anchor="start" x="276.7153" y="-299.6782" font-family="Times,serif" font-size="10.00" fill="#000000">createdAt: DATE</text>
<polygon fill="none" stroke="#000000" points="271.7153,-269.6782 271.7153,-291.6782 407.7153,-291.6782 407.7153,-269.6782 271.7153,-269.6782"/>
<text text-anchor="start" x="276.7153" y="-277.6782" font-family="Times,serif" font-size="10.00" fill="#000000">updatedAt: DATE</text>
</g>
<!-- AggRaDaObservation&#45;&gt;CoreLog -->
<g id="edge3" class="edge">
<title>AggRaDaObservation&#45;&gt;CoreLog</title>
<path fill="none" stroke="#000000" stroke-width=".75" d="M465.1571,-486.6304C446.4989,-470.7224 426.4331,-453.6141 407.9409,-437.8476"/>
<polygon fill="#000000" stroke="#000000" stroke-width=".75" points="465.3028,-486.7546 468.1168,-492.7021 467.5857,-488.701 469.8686,-490.6475 469.8686,-490.6475 469.8686,-490.6475 467.5857,-488.701 471.6204,-488.5928 465.3028,-486.7546 465.3028,-486.7546"/>
</g>
<!-- CoreFileCollection -->
<g id="node5" class="node">
<title>CoreFileCollection</title>
<polygon fill="#add8e6" stroke="transparent" points="844.0508,-355.0223 844.0508,-377.0223 932.0508,-377.0223 932.0508,-355.0223 844.0508,-355.0223"/>
<polygon fill="none" stroke="#000000" points="844.0508,-355.0223 844.0508,-377.0223 932.0508,-377.0223 932.0508,-355.0223 844.0508,-355.0223"/>
<text text-anchor="start" x="849.7228" y="-364.0223" font-family="Times,serif" font-weight="bold" font-size="10.00" fill="#000000">CoreFileCollection</text>
<polygon fill="none" stroke="#000000" points="844.0508,-333.0223 844.0508,-355.0223 932.0508,-355.0223 932.0508,-333.0223 844.0508,-333.0223"/>
<text text-anchor="start" x="849.0508" y="-342.0223" font-family="Times,serif" text-decoration="underline" font-size="10.00" fill="#000000">id</text>
<text text-anchor="start" x="856.8298" y="-342.0223" font-family="Times,serif" font-size="10.00" fill="#000000">: NUMBER</text>
<polygon fill="none" stroke="#000000" points="844.0508,-311.0223 844.0508,-333.0223 932.0508,-333.0223 932.0508,-311.0223 844.0508,-311.0223"/>
<text text-anchor="start" x="849.0508" y="-319.0223" font-family="Times,serif" font-size="10.00" fill="#000000">name: STRING</text>
<polygon fill="none" stroke="#000000" points="844.0508,-289.0223 844.0508,-311.0223 932.0508,-311.0223 932.0508,-289.0223 844.0508,-289.0223"/>
<text text-anchor="start" x="849.0508" y="-297.0223" font-family="Times,serif" font-size="10.00" fill="#000000">privacy: ENUM</text>
<polygon fill="none" stroke="#000000" points="844.0508,-267.0223 844.0508,-289.0223 932.0508,-289.0223 932.0508,-267.0223 844.0508,-267.0223"/>
<text text-anchor="start" x="849.0323" y="-275.0223" font-family="Times,serif" font-size="10.00" fill="#000000">isRaw: BOOLEAN</text>
<polygon fill="none" stroke="#000000" points="844.0508,-245.0223 844.0508,-267.0223 932.0508,-267.0223 932.0508,-245.0223 844.0508,-245.0223"/>
<text text-anchor="start" x="849.0508" y="-253.0223" font-family="Times,serif" font-size="10.00" fill="#000000">description: TEXT</text>
<polygon fill="none" stroke="#000000" points="844.0508,-223.0223 844.0508,-245.0223 932.0508,-245.0223 932.0508,-223.0223 844.0508,-223.0223"/>
<text text-anchor="start" x="849.0508" y="-231.0223" font-family="Times,serif" font-size="10.00" fill="#000000">tags: ARRAY</text>
<polygon fill="none" stroke="#000000" points="844.0508,-201.0223 844.0508,-223.0223 932.0508,-223.0223 932.0508,-201.0223 844.0508,-201.0223"/>
<text text-anchor="start" x="849.0508" y="-209.0223" font-family="Times,serif" font-size="10.00" fill="#000000">createdAt: DATE</text>
<polygon fill="none" stroke="#000000" points="844.0508,-179.0223 844.0508,-201.0223 932.0508,-201.0223 932.0508,-179.0223 844.0508,-179.0223"/>
<text text-anchor="start" x="849.0508" y="-187.0223" font-family="Times,serif" font-size="10.00" fill="#000000">updatedAt: DATE</text>
</g>
<!-- CoreFile&#45;&gt;CoreFileCollection -->
<g id="edge5" class="edge">
<title>CoreFile&#45;&gt;CoreFileCollection</title>
<path fill="none" stroke="#000000" stroke-width=".75" d="M836.1115,-424.7173C841.7247,-408.8635 847.4444,-392.7093 852.9377,-377.1942"/>
<polygon fill="#000000" stroke="#000000" stroke-width=".75" points="836.0515,-424.8869 831.5037,-429.6416 835.0502,-427.7149 834.0489,-430.5428 834.0489,-430.5428 834.0489,-430.5428 835.0502,-427.7149 836.5941,-431.444 836.0515,-424.8869 836.0515,-424.8869"/>
</g>
<!-- CoreFileCollectionUser -->
<g id="node6" class="node">
<title>CoreFileCollectionUser</title>
<polygon fill="#add8e6" stroke="transparent" points="631.9486,-110 631.9486,-132 781.9486,-132 781.9486,-110 631.9486,-110"/>
<polygon fill="none" stroke="#000000" points="631.9486,-110 631.9486,-132 781.9486,-132 781.9486,-110 631.9486,-110"/>
<text text-anchor="start" x="659.1826" y="-119" font-family="Times,serif" font-weight="bold" font-size="10.00" fill="#000000">CoreFileCollectionUser</text>
<polygon fill="none" stroke="#000000" points="631.9486,-88 631.9486,-110 781.9486,-110 781.9486,-88 631.9486,-88"/>
<text text-anchor="start" x="636.9486" y="-97" font-family="Times,serif" text-decoration="underline" font-size="10.00" fill="#000000">core_user_email</text>
<text text-anchor="start" x="703.0276" y="-97" font-family="Times,serif" font-size="10.00" fill="#000000">: TEXT</text>
<polygon fill="none" stroke="#000000" points="631.9486,-66 631.9486,-88 781.9486,-88 781.9486,-66 631.9486,-66"/>
<text text-anchor="start" x="636.5496" y="-75" font-family="Times,serif" text-decoration="underline" font-size="10.00" fill="#000000">core_file_collection_id</text>
<text text-anchor="start" x="729.2946" y="-75" font-family="Times,serif" font-size="10.00" fill="#000000">: NUMBER</text>
<polygon fill="none" stroke="#000000" points="631.9486,-44 631.9486,-66 781.9486,-66 781.9486,-44 631.9486,-44"/>
<text text-anchor="start" x="636.9486" y="-52" font-family="Times,serif" font-size="10.00" fill="#000000">permission_level: ENUM</text>
<polygon fill="none" stroke="#000000" points="631.9486,-22 631.9486,-44 781.9486,-44 781.9486,-22 631.9486,-22"/>
<text text-anchor="start" x="636.9486" y="-30" font-family="Times,serif" font-size="10.00" fill="#000000">createdAt: DATE</text>
<polygon fill="none" stroke="#000000" points="631.9486,0 631.9486,-22 781.9486,-22 781.9486,0 631.9486,0"/>
<text text-anchor="start" x="636.9486" y="-8" font-family="Times,serif" font-size="10.00" fill="#000000">updatedAt: DATE</text>
</g>
<!-- CoreFileCollectionUser&#45;&gt;CoreFileCollection -->
<g id="edge7" class="edge">
<title>CoreFileCollectionUser&#45;&gt;CoreFileCollection</title>
<path fill="none" stroke="#000000" stroke-width=".75" d="M767.4906,-136.8785C792.5134,-166.1735 820.9834,-199.5043 843.9717,-226.4174"/>
<polygon fill="#000000" stroke="#000000" stroke-width=".75" points="767.4025,-136.7753 765.5586,-130.4594 765.454,-134.4942 763.5055,-132.213 763.5055,-132.213 763.5055,-132.213 765.454,-134.4942 761.4525,-133.9667 767.4025,-136.7753 767.4025,-136.7753"/>
</g>
<!-- CoreUser -->
<g id="node8" class="node">
<title>CoreUser</title>
<polygon fill="#add8e6" stroke="transparent" points="376.7808,-160.828 376.7808,-182.828 488.7808,-182.828 488.7808,-160.828 376.7808,-160.828"/>
<polygon fill="none" stroke="#000000" points="376.7808,-160.828 376.7808,-182.828 488.7808,-182.828 488.7808,-160.828 376.7808,-160.828"/>
<text text-anchor="start" x="413.6243" y="-169.828" font-family="Times,serif" font-weight="bold" font-size="10.00" fill="#000000">CoreUser</text>
<polygon fill="none" stroke="#000000" points="376.7808,-138.828 376.7808,-160.828 488.7808,-160.828 488.7808,-138.828 376.7808,-138.828"/>
<text text-anchor="start" x="381.7808" y="-147.828" font-family="Times,serif" text-decoration="underline" font-size="10.00" fill="#000000">email</text>
<text text-anchor="start" x="403.9958" y="-147.828" font-family="Times,serif" font-size="10.00" fill="#000000">: STRING</text>
<polygon fill="none" stroke="#000000" points="376.7808,-116.828 376.7808,-138.828 488.7808,-138.828 488.7808,-116.828 376.7808,-116.828"/>
<text text-anchor="start" x="381.5428" y="-124.828" font-family="Times,serif" font-size="10.00" fill="#000000">password_hash: STRING</text>
<polygon fill="none" stroke="#000000" points="376.7808,-94.828 376.7808,-116.828 488.7808,-116.828 488.7808,-94.828 376.7808,-94.828"/>
<text text-anchor="start" x="381.7808" y="-102.828" font-family="Times,serif" font-size="10.00" fill="#000000">name: STRING</text>
<polygon fill="none" stroke="#000000" points="376.7808,-72.828 376.7808,-94.828 488.7808,-94.828 488.7808,-72.828 376.7808,-72.828"/>
<text text-anchor="start" x="381.7808" y="-80.828" font-family="Times,serif" font-size="10.00" fill="#000000">createdAt: DATE</text>
<polygon fill="none" stroke="#000000" points="376.7808,-50.828 376.7808,-72.828 488.7808,-72.828 488.7808,-50.828 376.7808,-50.828"/>
<text text-anchor="start" x="381.7808" y="-58.828" font-family="Times,serif" font-size="10.00" fill="#000000">updatedAt: DATE</text>
</g>
<!-- CoreFileCollectionUser&#45;&gt;CoreUser -->
<g id="edge6" class="edge">
<title>CoreFileCollectionUser&#45;&gt;CoreUser</title>
<path fill="none" stroke="#000000" stroke-width=".75" d="M625.5354,-81.0932C581.6225,-89.2342 528.5281,-99.0774 489.1913,-106.37"/>
<polygon fill="#000000" stroke="#000000" stroke-width=".75" points="625.769,-81.05 632.1606,-82.611 628.7187,-80.5031 631.6684,-79.9562 631.6684,-79.9562 631.6684,-79.9562 628.7187,-80.5031 631.1762,-77.3014 625.769,-81.05 625.769,-81.05"/>
</g>
<!-- CoreUser&#45;&gt;CoreLog -->
<g id="edge8" class="edge">
<title>CoreUser&#45;&gt;CoreLog</title>
<path fill="none" stroke="#000000" stroke-width=".75" d="M409.2965,-183.1562C400.6246,-207.6486 390.524,-236.1764 380.7513,-263.7777"/>
<polygon fill="#000000" stroke="#000000" stroke-width=".75" points="380.6742,-263.9958 376.1264,-268.7506 379.6729,-266.8238 378.6716,-269.6517 378.6716,-269.6517 378.6716,-269.6517 379.6729,-266.8238 381.2168,-270.5529 380.6742,-263.9958 380.6742,-263.9958"/>
</g>
</g>
</svg>
